<?xml version="1.0" standalone="no"?>
<!DOCTYPE svg PUBLIC "-//W3C//DTD SVG 20010904//EN"
 "http://www.w3.org/TR/2001/REC-SVG-20010904/DTD/svg10.dtd">
<svg version="1.0" xmlns="http://www.w3.org/2000/svg"
 width="179.000000pt" height="179.000000pt" viewBox="0 0 179.000000 179.000000"
 preserveAspectRatio="xMidYMid meet">
<metadata>
Created by potrace 1.14, written by Peter Selinger 2001-2017
</metadata>
<g transform="translate(0.000000,179.000000) scale(0.100000,-0.100000)"
fill="#000000" stroke="none">
<path d="M861 1606 c-8 -9 -11 -52 -9 -126 3 -95 6 -115 21 -124 12 -8 22 -8
35 0 14 9 17 29 20 124 3 116 -4 140 -38 140 -10 0 -23 -6 -29 -14z"/>
<path d="M382 1408 c-25 -25 -11 -54 62 -127 62 -61 78 -72 102 -69 24 2 30 8
32 32 3 24 -8 40 -69 102 -73 73 -102 87 -127 62z"/>
<path d="M1273 1348 c-64 -63 -74 -76 -71 -103 2 -25 8 -31 32 -33 24 -3 40 8
102 69 73 73 87 102 62 127 -24 24 -52 11 -125 -60z"/>
<path d="M799 1247 c-104 -30 -190 -104 -237 -206 -22 -46 -27 -71 -27 -141 0
-76 3 -92 32 -151 39 -79 102 -140 181 -177 48 -22 71 -27 142 -27 71 0 94 5
142 27 79 37 142 98 181 177 28 58 32 75 32 151 0 76 -4 93 -32 151 -60 121
-170 196 -300 205 -40 2 -87 -2 -114 -9z"/>
<path d="M182 928 c-6 -6 -12 -20 -12 -29 0 -33 24 -40 140 -37 95 3 115 6
124 21 8 12 8 22 0 35 -9 14 -29 17 -125 20 -81 2 -118 -1 -127 -10z"/>
<path d="M1352 928 c-6 -6 -12 -20 -12 -29 0 -33 24 -40 140 -37 95 3 115 6
124 21 8 12 8 22 0 35 -9 14 -29 17 -125 20 -81 2 -118 -1 -127 -10z"/>
<path d="M442 516 c-71 -72 -84 -100 -60 -124 24 -24 52 -11 124 60 56 54 74
78 74 99 0 27 -15 39 -49 39 -10 0 -50 -33 -89 -74z"/>
<path d="M1212 578 c-25 -25 -11 -54 61 -126 71 -71 100 -85 125 -60 25 25 11
54 -60 125 -72 72 -101 86 -126 61z"/>
<path d="M861 436 c-8 -9 -11 -52 -9 -126 3 -95 6 -115 21 -124 12 -8 22 -8
35 0 14 9 17 29 20 124 3 116 -4 140 -38 140 -10 0 -23 -6 -29 -14z"/>
</g>
</svg>
